<?xml version="1.0" encoding="utf-8"?>
<!-- Generator: Adobe Illustrator 24.0.0, SVG Export Plug-In . SVG Version: 6.00 Build 0)  -->
<svg version="1.1" id="图层_1" xmlns="http://www.w3.org/2000/svg" xmlns:xlink="http://www.w3.org/1999/xlink" x="0px" y="0px"
	 viewBox="0 0 313 129" style="enable-background:new 0 0 313 129;" xml:space="preserve">
<style type="text/css">
	.st0{fill:#FFFFFF;}
</style>
<g>
	<g>
		<g>
			<path class="st0" d="M80.8,49.1c5.8,0,10.5-4,10.5-8.9s-4.7-8.9-10.5-8.9c-5.8,0-10.5,4-10.5,8.9S75,49.1,80.8,49.1z M80.8,33.7
				c4.2,0,7.7,2.9,7.7,6.5c0,3.6-3.4,6.5-7.7,6.5c-4.2,0-7.7-2.9-7.7-6.5C73.1,36.6,76.5,33.7,80.8,33.7z"/>
			<path class="st0" d="M100.6,24.8c-0.5-0.5-1-1-1.7-1.4c-1.9-1.3-4.4-2.1-7-2.1H69.6c-2.7,0-5.1,0.8-7.1,2.1
				c-0.6,0.4-1.2,0.9-1.7,1.5c-1.5,1.6-2.4,3.7-2.4,5.9V58c0,0.7,0.6,1.2,1.4,1.2h41.9c0.8,0,1.4-0.5,1.4-1.2V30.7
				C103.1,28.5,102.2,26.4,100.6,24.8z M62.7,26.7l5.8,4.9c0.3,0.2,0.6,0.4,1,0.4c0.4,0,0.7-0.1,1-0.4c0.6-0.5,0.6-1.2,0-1.7
				L64.7,25c1.4-0.8,3-1.3,4.8-1.3h9.8v5.6c0,0.7,0.6,1.2,1.4,1.2c0.8,0,1.4-0.5,1.4-1.2v-5.6h9.8c1.8,0,3.4,0.5,4.8,1.3l-5.9,5
				c-0.6,0.5-0.6,1.2,0,1.7c0.3,0.2,0.6,0.4,1,0.4c0.4,0,0.7-0.1,1-0.4l5.9-5c1,1.2,1.5,2.6,1.5,4.1V39h-6.4c-0.8,0-1.4,0.5-1.4,1.2
				c0,0.7,0.6,1.2,1.4,1.2h6.4v13.7l-6.9-5.9c-0.6-0.5-1.5-0.5-2,0c-0.6,0.5-0.6,1.2,0,1.7l6.8,5.8h-16v-5.6c0-0.7-0.6-1.2-1.4-1.2
				c-0.8,0-1.4,0.5-1.4,1.2v5.6H63.3l6.8-5.8c0.6-0.5,0.6-1.2,0-1.7c-0.6-0.5-1.5-0.5-2,0l-6.8,5.8V41.4h6.5c0.8,0,1.4-0.5,1.4-1.2
				c0-0.7-0.6-1.2-1.4-1.2h-6.5v-8.3C61.2,29.2,61.8,27.9,62.7,26.7z"/>
		</g>
		<path class="st0" d="M52.1,28.3c-0.2-0.6-0.5-1.2-0.8-1.7c-1.8-3.1-5.6-5.3-10-5.3H18.9c-6.2,0-11.2,4.3-11.2,9.5V58
			c0,0.7,0.6,1.2,1.4,1.2h41.9c0.8,0,1.4-0.5,1.4-1.2V30.7C52.5,29.9,52.4,29.1,52.1,28.3z M18.9,23.7h22.4c3.4,0,6.3,1.7,7.6,4.2
			c-2.3,2.2-8.9,7.3-17.5,2.5c-9.3-5.3-17-2.5-20.8-0.3C11.1,26.4,14.6,23.7,18.9,23.7z M10.6,33c1.8-1.4,9.3-6.4,19.2-0.7
			c3.1,1.8,6,2.4,8.7,2.4c4.9,0,8.8-2.3,11.1-4.2c0,0,0,0.1,0,0.1v6.1c-0.9,1-8.3,8.9-18.2,3.2c-9.3-5.3-17.1-2.5-20.8-0.3V33z
			 M10.6,42.8c1.8-1.4,9.3-6.4,19.2-0.7c3.1,1.8,6,2.4,8.7,2.4c4.9,0,8.8-2.3,11.2-4.2v6.2c-0.9,1-8.3,8.9-18.2,3.2
			c-9.3-5.3-17.1-2.5-20.8-0.3V42.8z M49.6,56.8h-39v-4.2c1.8-1.4,9.3-6.4,19.2-0.7c3.1,1.8,6,2.4,8.7,2.4c4.9,0,8.8-2.3,11.2-4.2
			V56.8z"/>
		<path class="st0" d="M101.7,63.7H59.8c-0.8,0-1.4,0.5-1.4,1.2v37.3c0,3.1,3,5.6,6.6,5.6c3.3,0,6.5-0.4,9.6-1c0,0,0,0,0,0
			c16.4-3.6,28.6-16.3,28.6-31.3V64.9C103.1,64.2,102.5,63.7,101.7,63.7z M100.3,68.9c-2.1-0.1-6.2-0.2-10.7,0.3
			c-0.4-1.2-0.8-2.3-1.2-3.1h12V68.9z M85.2,66.1c0.4,0.7,1,1.9,1.5,3.5c-4.6,0.8-9.4,2.2-13.1,4.9c-7.4,5.3-8.8,13.9-6.3,21.8
			c-1.9,0.1-4,0-6.2-0.2V66.1H85.2z M84.8,87.2c-0.5,0.6-1,1.2-1.5,1.7c1.7-8,0.2-13.6-0.7-15.9c1.6-0.5,3.2-0.8,4.8-1.1
			C88.5,76.4,88.7,82.5,84.8,87.2z M73,78.5c1.1,2.8,2.6,9.2-0.9,17c-0.6,0.1-1.2,0.3-1.8,0.4C68.2,89.8,68.7,83.2,73,78.5z
			 M75.2,76.5c0.1-0.1,0.2-0.2,0.3-0.2c1.3-1,2.8-1.7,4.4-2.4c0.9,2.5,2.5,9-0.4,18.3c-1.2,0.9-2.5,1.6-3.9,2.2
			C78.8,85.4,76.2,78.6,75.2,76.5z M61.2,102.1v-3.7c1.5,0.2,2.9,0.3,4.3,0.3c0.9,0,1.8,0,2.7-0.1c0.9,2.2,2.1,4.2,3.5,6.1
			c-2.2,0.4-4.5,0.6-6.8,0.6C62.9,105.3,61.2,103.9,61.2,102.1z M74.8,104.2c-1.5-1.8-2.7-3.8-3.6-5.9c6.4-1.2,11.7-4.4,16-9.7
			c4.4-5.4,4.3-12,3.1-17c4.3-0.4,8.1-0.3,10-0.2v4.1C100.3,89,89.5,100.6,74.8,104.2z"/>
		<path class="st0" d="M52.5,64.9c0-0.7-0.6-1.2-1.4-1.2H9.2c-0.8,0-1.4,0.5-1.4,1.2v10.5c0,3.1,0.5,6.1,1.5,8.9c0,0,0,0.1,0,0.1
			c4.6,13.5,19.3,23.3,36.6,23.3c2.4,0,4.4-1.1,5.6-2.7c0,0,0.1-0.1,0.1-0.1c0,0,0-0.1,0-0.1c0.5-0.8,0.9-1.7,0.9-2.7V64.9z
			 M38.7,96.2c1.1-5.5-2.2-11.8-4.9-15.8c1.3,0.7,2.5,1.5,3.6,2.2c0.1,0.2,0.3,0.3,0.5,0.4c10,7.1,11.6,14.7,11.6,15.1
			c0,0,0,0.1,0,0.1v3.9c0,0.2,0,0.3-0.1,0.5C46.8,101.2,43,99,38.7,96.2z M10.6,75.4v-1.6c2.8,4.8,7.6,9.9,13.1,14.5
			c-5.2,0.3-10.7-4-11.8-5C11,80.8,10.6,78.2,10.6,75.4z M13.4,73.2c5.9,1.2,10.9,2.8,15.1,4.6c1.1,1.3,7.9,9.7,7.6,16.7
			C27.4,88.4,17.8,80.5,13.4,73.2z M37.6,66.9c6.7,3.9,12.2,9.2,11.4,23.2c-1.9-2.8-4.8-6-9.2-9.1C39.1,79.6,36.7,73.6,37.6,66.9z
			 M49.6,75.7c-1.9-4.1-4.8-7-8.7-9.6h8.7V75.7z M34.8,66.1c-0.7,4.9,0.1,9.5,1,12.5c-5.9-3.4-13.9-6.4-24.6-8.3c-0.2,0-0.4,0-0.6,0
			v-4.2H34.8z M13.8,87.8c2.5,1.5,5.9,2.9,9.4,2.9c1,0,2-0.1,3-0.4c8,6.4,16.7,11.7,21.9,14.3c-0.6,0.4-1.4,0.6-2.2,0.6
			C31.6,105.3,19.4,98.1,13.8,87.8z"/>
	</g>
	<g>
		<g id="XMLID_4033_">
			<g id="XMLID_4034_">
				<path id="XMLID_4048_" class="st0" d="M134.1,56c0,1.5,0.5,2.7,1.4,3.8c0.9,1,2.1,1.8,3.5,2.3c1.4,0.5,2.9,0.7,4.5,0.7
					c1.6,0,3.1-0.3,4.5-1c1.4-0.6,2.5-1.5,3.5-2.7c0.9-1.2,1.4-2.7,1.4-4.6V31.9c0-0.4-0.2-0.8-0.7-1.1c-0.5-0.3-1.3-0.4-2.5-0.3
					c1.5-0.8,2.9-1.4,4-1.6c1.2-0.2,2.1-0.2,2.9,0c0.8,0.2,1.3,0.6,1.7,1.1c0.4,0.6,0.6,1.2,0.6,1.8v21.9c0,1-0.3,2.1-0.9,3.2
					c-0.6,1.1-1.4,2.2-2.6,3.1c-1.2,1-2.6,1.8-4.4,2.5c-1.8,0.7-3.8,1.1-6.2,1.2c-2.1,0.1-4.1,0.1-6.1-0.1c-2-0.1-3.8-0.5-5.4-1.2
					c-1.6-0.7-2.9-1.6-3.9-2.9c-1-1.3-1.5-3.1-1.5-5.3V31.9c0-0.4-0.2-0.8-0.7-1.1c-0.4-0.3-1.3-0.4-2.5-0.3
					c1.6-0.8,2.9-1.4,4.1-1.6c1.2-0.2,2.1-0.2,2.9,0c0.8,0.2,1.3,0.6,1.7,1.1c0.4,0.6,0.6,1.2,0.6,1.8V56z"/>
				<path id="XMLID_4046_" class="st0" d="M169.3,44.3c2.2-1.5,4.5-2.6,6.9-3.2c2.4-0.6,4.6-0.7,6.6-0.5c2,0.3,3.7,0.9,5,1.9
					c1.3,1,2,2.4,2,4v13.8c0,1.2-0.4,2-1.1,2.6c-0.7,0.5-1.6,0.8-2.6,0.9c-1,0-2.1-0.1-3.1-0.4c-1.1-0.3-2-0.8-2.7-1.4
					c1.2,0.1,2.1,0.1,2.6-0.2c0.5-0.3,0.8-0.9,0.8-1.7V46.7c0-0.9-0.4-1.6-1.1-2.3c-0.7-0.7-1.7-1.2-3-1.4c-1.3-0.3-2.8-0.2-4.6,0.2
					c-1.8,0.4-3.7,1.2-5.8,2.4v14.8c0,1.2-0.4,2-1.1,2.6c-0.7,0.5-1.6,0.8-2.6,0.9c-1,0-2.1-0.1-3.1-0.4c-1.1-0.3-2-0.8-2.7-1.4
					c1.2,0.1,2.1,0.1,2.6-0.2c0.5-0.3,0.8-0.9,0.8-1.7V43.4c0-0.4-0.2-0.8-0.7-1.2c-0.5-0.3-1.4-0.4-2.6-0.3
					c1.6-0.8,2.9-1.4,4.1-1.6c1.2-0.2,2.2-0.2,2.9,0c0.8,0.2,1.4,0.6,1.8,1.1c0.4,0.5,0.6,1.1,0.6,1.8V44.3z"/>
				<path id="XMLID_4043_" class="st0" d="M194.4,31.8c0-0.4-0.2-0.8-0.7-1.1c-0.5-0.3-1.3-0.4-2.5-0.2c1.5-0.8,2.9-1.3,4-1.5
					c1.2-0.2,2.1-0.3,2.9-0.1c0.8,0.2,1.4,0.5,1.8,1c0.4,0.5,0.6,1,0.6,1.7v13.8c0.6-0.9,1.4-1.7,2.2-2.4c0.8-0.7,1.8-1.2,2.8-1.6
					c1-0.4,2-0.7,3.1-0.9c1.1-0.2,2.1-0.2,3.1-0.1c1.5,0.1,3,0.5,4.3,1.1c1.3,0.6,2.5,1.4,3.4,2.5c0.9,1.1,1.5,2.5,1.9,4.2
					c0.3,1.7,0.2,3.7-0.2,6.1c-0.4,1.7-1,3.2-2,4.4c-0.9,1.3-2,2.3-3.3,3.1c-1.3,0.8-2.8,1.4-4.4,1.7c-1.6,0.3-3.3,0.3-5,0.1
					c-1.2-0.1-2.3-0.5-3.2-1c-0.9-0.5-1.7-1-2.4-1.6c0,0.9-0.5,1.6-1.3,2.1c-0.8,0.4-1.8,0.7-2.9,0.7c-1.1,0-2.1-0.2-3.1-0.6
					c-1-0.4-1.8-0.9-2.2-1.6c1.2,0.3,2,0.3,2.5,0.1c0.5-0.2,0.7-0.8,0.7-1.7V31.8z M208.8,42.4c-1.1-0.1-2.1,0-3.1,0.5
					c-1,0.5-1.8,1-2.5,1.8c-0.7,0.7-1.4,1.5-1.8,2.2c-0.5,0.8-0.8,1.4-0.9,2v7.5c0.1,0.6,0.3,1.3,0.6,1.9c0.3,0.6,0.8,1.2,1.3,1.8
					c0.6,0.5,1.2,1,2,1.4c0.8,0.4,1.7,0.7,2.8,0.8c0.7,0.1,1.4,0,2.1-0.2c0.7-0.2,1.4-0.6,2-1.2c0.6-0.5,1.2-1.2,1.7-2
					c0.5-0.8,0.9-1.7,1.2-2.7c0.2-0.7,0.4-1.5,0.5-2.4c0.1-0.9,0.1-1.8,0.1-2.8c0-1-0.2-1.9-0.4-2.9c-0.2-0.9-0.6-1.8-1-2.6
					c-0.5-0.8-1.1-1.4-1.8-2C210.8,42.9,209.9,42.6,208.8,42.4z"/>
				<path id="XMLID_4040_" class="st0" d="M234.8,63.7c-2.1,0-3.9-0.3-5.4-0.8c-1.5-0.5-2.7-1.2-3.7-2.1c-1-0.9-1.7-1.9-2.2-3
					c-0.5-1.1-0.8-2.3-0.8-3.6c-0.1-2,0.2-3.9,0.9-5.6c0.7-1.7,1.8-3.2,3.1-4.4c1.4-1.2,3-2.2,4.9-2.9c1.9-0.7,4-1,6.4-1
					c2.4,0,4.4,0.3,5.9,0.8c1.5,0.5,2.7,1.2,3.4,2c0.7,0.8,1.1,1.7,1,2.7c-0.1,1-0.5,2.1-1.3,3.1c-0.6,0.8-1.5,1.5-2.5,2.1
					c-1.1,0.7-2.3,1.2-3.9,1.6c-1.5,0.4-3.3,0.8-5.3,1c-2,0.2-4.2,0.3-6.7,0.2c0.3,2.3,1.2,4,2.7,5.2c1.5,1.2,3.3,1.8,5.3,1.9
					c2,0.1,4.1-0.2,6.3-1.1c2.2-0.8,4.1-2.1,5.7-3.8c-1.2,2.4-3,4.3-5.5,5.7S238,63.7,234.8,63.7z M228.6,52.4c2.7,0.2,5,0,7-0.6
					c2-0.6,3.6-1.4,4.8-2.3c1.2-1,2-2,2.4-3.1c0.4-1.1,0.5-2.1,0.1-3c-0.4-0.9-1.2-1.5-2.4-1.9c-1.2-0.4-2.8-0.3-4.8,0.2
					c-0.9,0.2-1.7,0.6-2.6,1c-0.8,0.5-1.6,1.2-2.3,2c-0.7,0.9-1.2,1.9-1.6,3.2C228.7,49.2,228.5,50.7,228.6,52.4z"/>
				<path id="XMLID_4038_" class="st0" d="M259,63.6c-2.6,0-4.8-0.3-6.5-0.9c-1.7-0.6-2.8-1.3-3.2-2.1c-0.3-0.5-0.3-1-0.2-1.4
					c0.2-0.4,0.5-0.6,0.9-0.8c0.4-0.2,0.8-0.2,1.3-0.2c0.5,0,0.9,0.2,1.3,0.5c0.4,0.3,0.6,0.6,0.8,1c0.1,0.4,0.4,0.8,0.8,1.2
					c0.4,0.4,1,0.8,1.9,1.1c0.8,0.3,2.1,0.5,3.8,0.6c2.2,0.1,4-0.1,5.2-0.8c1.2-0.6,2-1.4,2.2-2.3c0.2-0.9-0.1-1.8-0.9-2.8
					c-0.8-0.9-2.2-1.7-4.1-2.2c-1.9-0.5-3.8-1.1-5.7-1.8c-1.9-0.7-3.5-1.6-4.6-2.6c-1.5-1.3-2.2-2.5-2.1-3.7
					c0.1-1.2,0.6-2.3,1.7-3.2c1.1-0.9,2.6-1.7,4.5-2.2c1.9-0.5,4-0.8,6.2-0.8c2.4,0.1,4.3,0.5,6,1.2c1.6,0.8,2.7,1.7,3.1,2.9
					c0.2,0.5,0.2,1,0.1,1.4c-0.1,0.5-0.3,0.9-0.6,1.3c-0.3,0.4-0.7,0.7-1.3,1c-0.5,0.3-1.2,0.4-1.9,0.5c-1.1,0.1-1.9-0.1-2.4-0.4
					c-0.5-0.3-0.7-0.7-0.7-1c0-0.4,0.2-0.7,0.5-1c0.4-0.3,0.9-0.4,1.5-0.2c1.1,0.2,1.8,0.2,2.1-0.1c0.4-0.3,0.5-0.6,0.5-1.1
					c0-0.5-0.2-1-0.6-1.5c-0.4-0.4-0.8-0.8-1.4-1.1c-0.5-0.3-1.1-0.6-1.8-0.7c-0.7-0.2-1.3-0.3-1.9-0.4c-2-0.1-3.7,0.1-5.1,0.6
					c-1.4,0.5-2.3,1.3-2.8,2.1c-0.5,0.9-0.4,1.8,0.1,2.8c0.5,1,1.7,1.9,3.5,2.7c1,0.4,2.3,0.9,3.7,1.4c1.4,0.5,2.7,0.9,3.9,1.3
					c2,0.6,3.5,1.4,4.5,2.4c1,0.9,1.5,2,1.5,3c0,1.3-0.5,2.3-1.4,3.1c-0.9,0.8-2,1.4-3.4,1.8c-1.4,0.4-2.9,0.7-4.5,0.8
					C262,63.5,260.5,63.6,259,63.6z"/>
				<path id="XMLID_4035_" class="st0" d="M286.6,33.1c3-0.4,5.6-0.4,8,0.2c2.3,0.6,4.3,1.6,5.9,3c1.6,1.4,2.8,3.2,3.7,5.3
					c0.8,2.1,1.2,4.5,1.1,7.2c-0.1,2.7-0.6,5-1.4,6.9c-0.9,1.9-2,3.4-3.5,4.6c-1.4,1.2-3.1,2-5,2.6c-1.9,0.5-3.9,0.8-6,0.9
					c-2,0-3.9-0.2-5.7-0.8c-1.8-0.6-3.3-1.4-4.6-2.4c-1.3-1.1-2.4-2.3-3.2-3.9c-0.9-1.5-1.4-3.2-1.6-5c-0.3-2.4-0.2-4.6,0.2-6.7
					c0.4-2.1,1.1-4,2.2-5.6c1.1-1.6,2.4-3,4-4.1C282.4,34.2,284.3,33.5,286.6,33.1z M290.5,62.2c1.9,0,3.5-0.4,4.7-1.2
					s2.1-1.9,2.6-3.3c0.6-1.4,0.9-3,1-4.9c0.1-1.9,0-3.9-0.3-6.1c-0.2-1.5-0.6-3-1.1-4.5c-0.5-1.5-1.2-2.8-2-4
					c-0.8-1.2-1.7-2.2-2.7-2.9c-1-0.7-2.2-1.1-3.4-1.1c-1.6,0-2.9,0.3-4,0.9c-1.1,0.6-1.9,1.5-2.6,2.5c-0.7,1-1.1,2.2-1.4,3.5
					c-0.3,1.3-0.5,2.6-0.5,3.9c0,1.3,0,2.6,0.2,3.9c0.2,1.2,0.3,2.3,0.6,3.3c0.8,3.1,2,5.6,3.5,7.4
					C286.5,61.3,288.4,62.2,290.5,62.2z"/>
			</g>
		</g>
		<g id="XMLID_4006_">
			<path id="XMLID_4032_" class="st0" d="M140.6,78.7c-0.4,0-0.7-0.1-1-0.3l-3.8-3c-0.6-0.5-0.6-1.3-0.1-1.8
				c0.6-0.5,1.5-0.5,2.1-0.1l3.8,3c0.6,0.5,0.6,1.3,0.1,1.8C141.4,78.6,141,78.7,140.6,78.7z"/>
			<path id="XMLID_4031_" class="st0" d="M227.5,86.2c-0.4,0-0.7-0.1-1-0.3l-5.9-4.6c-0.6-0.5-0.6-1.3-0.1-1.8
				c0.6-0.5,1.5-0.5,2.1-0.1l5.9,4.6c0.6,0.5,0.6,1.3,0.1,1.8C228.3,86.1,227.9,86.2,227.5,86.2z"/>
			<path id="XMLID_4030_" class="st0" d="M200.3,82.3c-0.4,0-0.8-0.1-1.1-0.4c-0.5-0.5-0.5-1.3,0.1-1.8l8.6-6.6c0.6-0.4,1.4-0.4,2,0
				l7.8,6c0.6,0.5,0.7,1.3,0.1,1.8c-0.6,0.5-1.5,0.6-2.1,0.1l-6.8-5.3l-7.6,5.8C201,82.2,200.7,82.3,200.3,82.3z"/>
			<path id="XMLID_4029_" class="st0" d="M130.2,78.7c-0.4,0-0.7-0.1-1-0.3l-3.8-3c-0.6-0.5-0.6-1.3-0.1-1.8
				c0.6-0.5,1.5-0.5,2.1-0.1l3.8,3c0.6,0.5,0.6,1.3,0.1,1.8C131,78.6,130.6,78.7,130.2,78.7z"/>
			<path id="XMLID_4028_" class="st0" d="M130.2,86.4c-0.4,0-0.7-0.1-1-0.3l-3.8-3c-0.6-0.5-0.6-1.3-0.1-1.8
				c0.6-0.5,1.5-0.5,2.1-0.1l3.8,3c0.6,0.5,0.6,1.3,0.1,1.8C131,86.2,130.6,86.4,130.2,86.4z"/>
			<path id="XMLID_4027_" class="st0" d="M126.3,100.3c-0.2,0-0.5,0-0.7-0.1c-0.7-0.3-1-1.1-0.7-1.7c3.1-5.1,3.7-8.3,3.7-8.4
				c0.1-0.7,0.9-1.2,1.7-1.1c0.8,0.1,1.4,0.7,1.3,1.4c0,0.1-0.7,3.6-4,9.1C127.4,100,126.9,100.3,126.3,100.3z"/>
			<path id="XMLID_4026_" class="st0" d="M135.2,100.3c-0.8,0-1.5-0.6-1.5-1.3V78.6c0-0.7,0.7-1.3,1.5-1.3c0.8,0,1.5,0.6,1.5,1.3V99
				C136.7,99.7,136,100.3,135.2,100.3z"/>
			<path id="XMLID_4025_" class="st0" d="M146.4,94.9c-0.8,0-1.5-0.6-1.5-1.3V81.5c0-0.7,0.7-1.3,1.5-1.3s1.5,0.6,1.5,1.3v12.1
				C147.9,94.3,147.2,94.9,146.4,94.9z"/>
			<path id="XMLID_4024_" class="st0" d="M209,91.8c-0.8,0-1.5-0.6-1.5-1.3v-6.7c0-0.7,0.7-1.3,1.5-1.3c0.8,0,1.5,0.6,1.5,1.3v6.7
				C210.5,91.2,209.8,91.8,209,91.8z"/>
			<path id="XMLID_4023_" class="st0" d="M154.6,100.3c-0.4,0-0.9-0.2-1.2-0.5c-0.5-0.6-0.4-1.3,0.3-1.8c2.6-1.7,2.2-4.8,2.2-4.9
				l0-15c0-0.8-0.7-1.4-1.6-1.4h-10.4c-0.8,0-1.5-0.6-1.5-1.3c0-0.7,0.7-1.3,1.5-1.3h10.4c2.5,0,4.6,1.8,4.6,4V93c0,0,0.5,4.4-3.4,7
				C155.2,100.2,154.9,100.3,154.6,100.3z"/>
			<path id="XMLID_4022_" class="st0" d="M222.5,100.3c-0.4,0-0.9-0.2-1.2-0.5c-0.5-0.6-0.4-1.3,0.3-1.8c2.6-1.7,2.2-4.8,2.2-4.9
				l0-8.2c0-0.7,0.7-1.3,1.5-1.3c0.8,0,1.5,0.6,1.5,1.3V93c0,0,0.5,4.4-3.4,7C223.2,100.2,222.9,100.3,222.5,100.3z"/>
			<path id="XMLID_4021_" class="st0" d="M191.6,93.5c-0.8,0-1.5-0.6-1.5-1.3V78.1c0-0.8-0.7-1.4-1.6-1.4h-10.4
				c-0.8,0-1.5-0.6-1.5-1.3c0-0.7,0.7-1.3,1.5-1.3h10.4c2.5,0,4.6,1.8,4.6,4v14.1C193.1,92.9,192.5,93.5,191.6,93.5z"/>
			<path id="XMLID_4020_" class="st0" d="M225.2,83.3c-0.4,0-0.8-0.1-1.1-0.4c-0.5-0.5-0.5-1.3,0.1-1.8l4.5-3.4
				c0.4-0.5,0.5-0.8,0.4-0.9c0,0-0.2-0.1-0.6-0.1h-9c-0.8,0-1.5-0.6-1.5-1.3c0-0.7,0.7-1.3,1.5-1.3h8.9c1.6,0,2.8,0.6,3.3,1.6
				c0.6,1.1,0.2,2.4-0.9,3.6c0,0-0.1,0.1-0.1,0.1l-4.6,3.4C225.9,83.2,225.5,83.3,225.2,83.3z"/>
			<path id="XMLID_4019_" class="st0" d="M229.4,90.7c-0.4,0-0.7-0.1-1-0.3c-0.6-0.5-0.7-1.3-0.1-1.8l1.5-1.4
				c0.5-0.5,0.5-0.8,0.5-0.9c0,0-0.2-0.1-0.6-0.1h-11.1c-0.8,0-1.5-0.6-1.5-1.3c0-0.7,0.7-1.3,1.5-1.3h11.1c1.6,0,2.8,0.6,3.3,1.6
				c0.6,1.1,0.2,2.4-0.9,3.6l-1.6,1.5C230.3,90.6,229.9,90.7,229.4,90.7z"/>
			<path id="XMLID_4018_" class="st0" d="M167.8,93.5c-0.8,0-1.5-0.6-1.5-1.3V78.1c0-2.2,2-4,4.6-4h10.4c0.8,0,1.5,0.6,1.5,1.3
				c0,0.7-0.7,1.3-1.5,1.3h-10.4c-0.9,0-1.6,0.6-1.6,1.4v14.1C169.3,92.9,168.6,93.5,167.8,93.5z"/>
			<path id="XMLID_4017_" class="st0" d="M152.2,82.7h-11.5c-0.8,0-1.5-0.6-1.5-1.3c0-0.7,0.7-1.3,1.5-1.3h11.5
				c0.8,0,1.5,0.6,1.5,1.3C153.7,82.2,153,82.7,152.2,82.7z"/>
			<path id="XMLID_4016_" class="st0" d="M213.8,83.7H204c-0.8,0-1.5-0.6-1.5-1.3c0-0.7,0.7-1.3,1.5-1.3h9.8c0.8,0,1.5,0.6,1.5,1.3
				C215.3,83.1,214.6,83.7,213.8,83.7z"/>
			<path id="XMLID_4015_" class="st0" d="M215.2,88.4h-12.6c-0.8,0-1.5-0.6-1.5-1.3c0-0.7,0.7-1.3,1.5-1.3h12.6
				c0.8,0,1.5,0.6,1.5,1.3C216.7,87.9,216.1,88.4,215.2,88.4z"/>
			<path id="XMLID_4014_" class="st0" d="M220.9,86.8"/>
			<path id="XMLID_4011_" class="st0" d="M214.3,100.3h-10.6c-1.3,0-2.4-0.9-2.4-2.1v-5.7c0-1.1,1.1-2.1,2.4-2.1h10.6
				c1.3,0,2.4,0.9,2.4,2.1v5.7C216.7,99.4,215.6,100.3,214.3,100.3z M204.2,97.8h9.6V93h-9.6V97.8z"/>
			<path id="XMLID_4010_" class="st0" d="M151.8,88.9H141c-0.8,0-1.5-0.6-1.5-1.3c0-0.7,0.7-1.3,1.5-1.3h10.7c0.8,0,1.5,0.6,1.5,1.3
				C153.3,88.3,152.6,88.9,151.8,88.9z"/>
			<path id="XMLID_4009_" class="st0" d="M152.5,95.1h-12.1c-0.8,0-1.5-0.6-1.5-1.3c0-0.7,0.7-1.3,1.5-1.3h12.1
				c0.8,0,1.5,0.6,1.5,1.3C154,94.6,153.3,95.1,152.5,95.1z"/>
			<path id="XMLID_4008_" class="st0" d="M165.4,100.3c-0.8,0-1.4-0.5-1.5-1.1c-0.1-0.7,0.5-1.3,1.3-1.4c0.1,0,5.9-0.6,9.9-4
				c3.2-2.8,3.4-10.6,3.2-13.4c0-0.7,0.6-1.3,1.4-1.3c0.8,0,1.5,0.5,1.6,1.2c0,0.5,0.7,11.1-4,15.3c-4.7,4.1-11.4,4.7-11.7,4.7
				C165.5,100.3,165.4,100.3,165.4,100.3z"/>
			<path id="XMLID_4007_" class="st0" d="M185.1,94.3c0.1,0,0.1,0,0.2,0c0.3,0,6.7,0.9,9.4,3.8c0.5,0.6,0.6,1.3,0,1.8
				c-0.6,0.5-1.5,0.4-2.1-0.1c-2.5-2.1-7.5-3-7.6-3c-0.8-0.1-1.4-0.7-1.3-1.4C183.7,94.8,184.4,94.3,185.1,94.3z"/>
		</g>
	</g>
</g>
</svg>
