<?xml version="1.0" encoding="utf-8"?>
<!-- Generator: Adobe Illustrator 16.0.0, SVG Export Plug-In . SVG Version: 6.00 Build 0)  -->
<!DOCTYPE svg PUBLIC "-//W3C//DTD SVG 1.1//EN" "http://www.w3.org/Graphics/SVG/1.1/DTD/svg11.dtd">
<svg version="1.1" id="图层_1" xmlns="http://www.w3.org/2000/svg" xmlns:xlink="http://www.w3.org/1999/xlink" x="0px" y="0px"
	 width="164.707px" height="190.047px" viewBox="17.647 0 164.707 190.047" enable-background="new 17.647 0 164.707 190.047"
	 xml:space="preserve">
<path d="M98.235,89.365l11.411-11.412c2.297-2.297,2.297-6.021,0-8.318l-1.446-1.459c-2.294-2.3-6.019-2.305-8.319-0.01
	c-0.004,0.003-0.007,0.007-0.011,0.01L81.118,86.941L62.365,68.176c-2.297-2.296-6.021-2.296-8.318,0l-1.458,1.459
	c-2.296,2.297-2.296,6.021,0,8.318L64,89.365H48.882c-3.249,0-5.882,2.634-5.882,5.882v2.059c0,3.249,2.634,5.883,5.882,5.883l0,0
	h25.212v13.823H48.871c-3.249,0-5.882,2.634-5.882,5.883l0,0v2.059c0,3.248,2.634,5.883,5.882,5.883l0,0h25.212v25.623
	c0,3.248,2.633,5.883,5.882,5.883l0,0h2.059c3.249,0,5.882-2.635,5.882-5.883l0,0v-25.623h25.211c3.249,0,5.883-2.635,5.883-5.883
	l0,0v-2.059c0-3.249-2.634-5.883-5.883-5.883l0,0H87.906v-13.823h25.211c3.249,0,5.883-2.634,5.883-5.883l0,0v-2.059
	c0-3.249-2.634-5.882-5.883-5.882l0,0H98.235L98.235,89.365z M29.412,38.012h103.176c6.498,0,11.766,5.267,11.766,11.765v128.506
	c0,6.497-5.268,11.765-11.766,11.765H29.412c-6.498,0-11.765-5.268-11.765-11.765V49.765C17.647,43.267,22.914,38,29.412,38V38.012z
	"/>
<path d="M157.012,152.035V39.412c0-6.498-5.268-11.765-11.765-11.765H55.659V11.765C55.659,5.267,60.926,0,67.423,0h103.165
	c6.498,0,11.766,5.267,11.766,11.765v128.506c0,6.497-5.268,11.765-11.766,11.765H157.012z"/>
</svg>
