<?xml version="1.0" standalone="no"?><!DOCTYPE svg PUBLIC "-//W3C//DTD SVG 1.1//EN" "http://www.w3.org/Graphics/SVG/1.1/DTD/svg11.dtd"><svg t="1552378477846" class="icon" style="" viewBox="0 0 1024 1024" version="1.1" xmlns="http://www.w3.org/2000/svg" p-id="3235" xmlns:xlink="http://www.w3.org/1999/xlink" width="200" height="200"><defs><style type="text/css"></style></defs><path d="M911.201377 321.27465H113.302188a47.838702 47.838702 0 0 1-39.781657-39.781658A46.579789 46.579789 0 0 1 113.302188 241.459552h159.630195V161.392673A71.254487 71.254487 0 0 1 352.495697 81.577576h316.742562a73.520531 73.520531 0 0 1 81.829358 79.815097v80.066879h159.630195a47.838702 47.838702 0 0 1 39.781657 39.529875 47.083354 47.083354 0 0 1-39.278092 40.285223zM671.756086 201.426113a48.090484 48.090484 0 0 0-39.781658-39.529875h-239.445291A47.838702 47.838702 0 0 0 352.495697 201.426113v40.033439h319.763954z m-199.411852 199.411851v399.579051h-79.815097V401.089747z m159.630194 0v399.579051h-79.815097V401.089747zM232.64716 360.804524a48.342267 48.342267 0 0 1 40.285223 39.781657v438.857143a47.838702 47.838702 0 0 0 39.529874 39.781658h399.327268a47.838702 47.838702 0 0 0 39.781658-39.781658V401.089747a47.838702 47.838702 0 0 1 39.529874-39.781657A47.838702 47.838702 0 0 1 830.882715 401.089747V881.239243a71.758053 71.758053 0 0 1-79.815098 79.815097h-478.387017A71.758053 71.758053 0 0 1 192.110155 881.239243V402.852225a50.356528 50.356528 0 0 1 40.537005-40.285222z m0 0" p-id="3236"></path></svg>