<?xml version="1.0" encoding="utf-8"?>
<!-- Generator: Adobe Illustrator 16.0.0, SVG Export Plug-In . SVG Version: 6.00 Build 0)  -->
<!DOCTYPE svg PUBLIC "-//W3C//DTD SVG 1.1//EN" "http://www.w3.org/Graphics/SVG/1.1/DTD/svg11.dtd">
<svg version="1.1" id="图层_1" xmlns="http://www.w3.org/2000/svg" xmlns:xlink="http://www.w3.org/1999/xlink" x="0px" y="0px"
	 width="208.936px" height="178.025px" viewBox="-24.065 -22.974 208.936 178.025"
	 enable-background="new -24.065 -22.974 208.936 178.025" xml:space="preserve">
<path d="M158.332-19.256H2.463c-13.3,0.042-24.069,10.817-24.106,24.116v93.917c0.031,13.304,10.804,24.08,24.106,24.117H49.6
	c0.285,0.461,0.62,0.887,0.995,1.274L74.858,149c2.997,3.064,7.91,3.116,10.971,0.12c0.042-0.04,0.081-0.079,0.121-0.12
	l24.261-24.832c0.376-0.388,0.71-0.813,0.996-1.274h47.125c13.303-0.037,24.079-10.812,24.117-24.117V4.86
	C182.411-8.444,171.636-19.221,158.332-19.256z M122.631,84.377H38.174c-4.323,0.002-7.827-3.5-7.83-7.822
	c-0.002-4.324,3.501-7.829,7.823-7.831c0.002,0,0.004,0,0.006,0h84.458c4.324-0.002,7.829,3.5,7.831,7.821
	c0.002,4.324-3.5,7.829-7.822,7.831C122.638,84.377,122.633,84.377,122.631,84.377z M130.458,24.336
	c0,4.322-3.502,7.827-7.826,7.827l0,0H38.174c-4.323,0-7.826-3.505-7.826-7.827s3.503-7.826,7.826-7.826h84.458
	C126.956,16.51,130.458,20.014,130.458,24.336L130.458,24.336z"/>
</svg>
