<?xml version="1.0" encoding="utf-8"?>
<!-- Generator: Adobe Illustrator 16.0.0, SVG Export Plug-In . SVG Version: 6.00 Build 0)  -->
<!DOCTYPE svg PUBLIC "-//W3C//DTD SVG 1.1//EN" "http://www.w3.org/Graphics/SVG/1.1/DTD/svg11.dtd">
<svg version="1.1" id="图层_1" xmlns="http://www.w3.org/2000/svg" xmlns:xlink="http://www.w3.org/1999/xlink" x="0px" y="0px"
	 width="107.662px" height="128px" viewBox="46.052 36 107.662 128" enable-background="new 46.052 36 107.662 128"
	 xml:space="preserve">
<path d="M148.733,52.069c-1.163,0.046-2.31,0.062-3.427,0.062c-29.413,0-42.392-12.74-42.496-12.848l-2.928-3.039l-2.958,3.039
	C96.804,39.421,84.098,52.13,54.444,52.13c-1.117,0-2.264-0.015-3.426-0.062l-4.135-0.139v57.746
	c0,15.115,5.342,37.171,51.551,54.044l1.449,0.524l1.448-0.524c46.21-16.873,51.552-38.929,51.552-54.044V51.93L148.733,52.069
	 M95.325,124.605l-26.621-23.69l7.063-5.753l14.156,10.487c0,0,19.543-20.313,38.422-29.813l2.701,3.053
	C131.046,78.89,107.458,98.54,95.325,124.605"/>
</svg>
