<?xml version="1.0" standalone="no"?><!DOCTYPE svg PUBLIC "-//W3C//DTD SVG 1.1//EN" "http://www.w3.org/Graphics/SVG/1.1/DTD/svg11.dtd"><svg t="1552376240106" class="icon" style="" viewBox="0 0 1024 1024" version="1.1" xmlns="http://www.w3.org/2000/svg" p-id="5948" xmlns:xlink="http://www.w3.org/1999/xlink" width="200" height="200"><defs><style type="text/css"></style></defs><path d="M128 192v640h768V192H128z m0-64h768a64 64 0 0 1 64 64v640a64 64 0 0 1-64 64H128a64 64 0 0 1-64-64V192a64 64 0 0 1 64-64z m640 288a32 32 0 0 1-32 32h-448a32 32 0 0 1 0-64h448a32 32 0 0 1 32 32z m-128 192a32 32 0 0 1-32 32h-320a32 32 0 0 1 0-64h320a32 32 0 0 1 32 32z" fill="#666666" p-id="5949"></path></svg>